<svg xmlns:xlink="http://www.w3.org/1999/xlink" class="f0hiXs2f qBfzpew_" tabindex="" xmlns="http://www.w3.org/2000/svg" viewBox="0 0 62.1 66" role="img" aria-label="Down" width="66"  height="70" ><path fill="#9588FF" fill-rule="evenodd" clip-rule="evenodd" d="M14.1 33.1l14.3 21.1 15.5-21.1H14.1z"></path><path d="M50.6 15.4c-.5.7-1.4.8-2.1.3-.2-.1-.3-.2-.4-.3-.4-.3-.6-.7-.6-1.2 0-.3.1-.6.3-.9.5-.7 1.4-.8 2-.4.2.2.4.2.5.4.6.6.8 1.5.3 2.1zM54.8 22.4c-.3-.4-.5-.7-.8-1.1-.5-.7-.4-1.6.3-2.1s1.6-.4 2.1.3c.3.5.6.8.9 1.3 1.1 1.6-1.3 3.2-2.5 1.6zM58.5 30.6c-.1-.5-.2-.9-.4-1.3-.2-.8.2-1.6 1-1.8.8-.3 1.6.2 1.8 1 .2.4.3 1 .4 1.5.5 1.8-2.4 2.5-2.8.6zM62.1 38.4c-.1.5-.1 1-.1 1.5-.2 1.9-3.2 1.6-3-.4.1-.5.2-1 .2-1.4.1-.8.8-1.4 1.6-1.3.7.1 1.4.8 1.3 1.6zM59.8 48.1l-.7 1.4c-.9 1.8-3.6.5-2.7-1.3.2-.4.4-.8.6-1.3.3-.7 1.2-1.1 2-.7.8.3 1.1 1.1.8 1.9zM54.3 56.4l-1.1 1.1c-1 1-2.5.2-2.5-1 0-.8.5-1 1.5-2.1 1.2-1.5 3.4.6 2.1 2zM46.3 62.5c-.5.2-1 .4-1.4.7-1 .4-2.2-.2-2.2-1.3 0-1.2 1-1.4 2.2-1.9 1.7-1 3.1 1.6 1.4 2.5zM36.9 65.8c-.5.1-1 .1-1.5.2-1.9.2-2.3-2.7-.4-3 .5-.1 1-.1 1.4-.2.8-.2 1.6.4 1.7 1.2.1.9-.4 1.6-1.2 1.8zM26.9 65.9c-.5-.1-1-.1-1.5-.2-1.9-.3-1.4-3.2.5-2.9.4.1 1 .1 1.4.2 1.9.3 1.6 3.2-.4 2.9zM17.4 63.3c-.5-.2-1-.4-1.4-.7-1.7-.9-.3-3.5 1.4-2.6.4.2.8.4 1.3.6 1.7.8.5 3.5-1.3 2.7zM11.3 57.6c-.5.6-1.5.7-2.1.1-.6-.7-1.5-1.3-1.5-2.2 0-1.3 1.6-2 2.5-1 .3.3.6.7 1 1 .6.6.6 1.5.1 2.1zM5.1 50.3c-.7.4-1.6.1-2-.7-.2-.4-.8-1.5-.8-2 0-1.5 2.2-2.1 2.8-.6.2.4.4.8.6 1.3.4.7.1 1.6-.6 2zM.1 40.1c0-.3-.1-1.3-.1-1.6 0-1.9 2.8-2 3-.1 0 .4.1.9.2 1.3.1 2-2.8 2.3-3.1.4zM3.9 29.4c-.1.5-.2.9-.4 1.3-.4 1.7-2.9 1.4-2.9-.3 0-.4.4-1.6.4-1.9.6-1.8 3.5-.9 2.9.9zM8 21.4c-.3.4-.6.7-.8 1.1-.8 1.3-2.7.7-2.7-.8 0-.7.4-1.1 1.1-2.1 1.2-1.5 3.6.3 2.4 1.8zM12.2 16.8l-.4.4c-.6.5-1.6.4-2.1-.2-.2-.3-.4-.6-.4-1s.1-.8.5-1.1l.5-.4c.6-.5 1.5-.5 2.1.2.5.7.4 1.6-.2 2.1zM50 31.9C30 59.1 31.4 57.7 30.3 57.7c-1.1 0 .2 1.4-18.2-25.8-.3-.5-.3-1-.1-1.6.6-1 .5-.7 12.4-.7V1.4c0-1.9 3-1.9 3 0V31c0 .8-.7 1.5-1.5 1.5h-9.8l14.3 21.1 15.5-21.1h-9.6c-.8 0-1.5-.7-1.5-1.5V1.4c0-1.9 3-1.9 3 0v28.1h11c1.2.1 1.9 1.5 1.2 2.4z" fill="#484848"></path></svg>