<svg xmlns:xlink="http://www.w3.org/1999/xlink" class="f0hiXs2f qBfzpew_" tabindex="" xmlns="http://www.w3.org/2000/svg" viewBox="0 0 69.7 62" role="img" aria-label="Lock" width="70"  height="70" ><path d="M43.4 35H16.6c-2.5 0-4.6 2.2-4.6 4.8v16.4c0 1.2.4 2.2 1.1 3.1h29.2c2.6 0 4.8-2.2 4.8-4.8V37c-.8-1.2-2.2-2-3.7-2zm-17.1 9.1c-.1.7-.6 1.4-1.4 1.4-.8 0-1.4-.6-1.4-1.4v-2.5c0-.8.6-1.4 1.4-1.4.7 0 1.4.6 1.4 1.4v2.5zM43.4 35H16.6c-2.5 0-4.6 2.2-4.6 4.8v16.4c0 1.2.4 2.2 1.1 3.1h29.2c2.6 0 4.8-2.2 4.8-4.8V37c-.8-1.2-2.2-2-3.7-2zm-17.1 9.1c-.1.7-.6 1.4-1.4 1.4-.8 0-1.4-.6-1.4-1.4v-2.5c0-.8.6-1.4 1.4-1.4.7 0 1.4.6 1.4 1.4v2.5zM43.4 35H16.6c-2.5 0-4.6 2.2-4.6 4.8v16.4c0 1.2.4 2.2 1.1 3.1h29.2c2.6 0 4.8-2.2 4.8-4.8V37c-.8-1.2-2.2-2-3.7-2zm-17.1 9.1c-.1.7-.6 1.4-1.4 1.4-.8 0-1.4-.6-1.4-1.4v-2.5c0-.8.6-1.4 1.4-1.4.7 0 1.4.6 1.4 1.4v2.5z" fill="#9588FF"></path><path d="M69.7 16.4v4.8c0 .7-.6 1.3-1.4 1.3s-1.3-.7-1.3-1.4v-4.8c0-7.5-6.1-13.7-13.6-13.7S39.7 8.7 39.7 16.3v4.8c0 .7-.6 1.3-1.4 1.3-.7 0-1.4-.6-1.4-1.3v-4.8C37.1 7.3 44.4 0 53.4 0s16.3 7.3 16.3 16.4zM42.3 23.9H7.5c-4.1 0-7.5 3.4-7.5 7.5v23C0 58.6 3.4 62 7.5 62h34.8c4.1 0 7.5-3.4 7.5-7.5v-23c0-4.2-3.4-7.6-7.5-7.6zm4.8 30.6c0 2.7-2.2 4.8-4.8 4.8H7.5c-2.7 0-4.8-2.2-4.8-4.8v-23c0-2.6 2.2-4.8 4.8-4.8h34.8c2.6 0 4.8 2.2 4.8 4.8v23z" fill="#484848"></path><path d="M26.3 41.7v2.5c-.1.7-.6 1.4-1.4 1.4-.8 0-1.4-.6-1.4-1.4v-2.5c0-.8.6-1.4 1.4-1.4.8 0 1.4.6 1.4 1.4z" fill="#484848"></path></svg>