<svg xmlns:xlink="http://www.w3.org/1999/xlink" class="f0hiXs2f qBfzpew_" tabindex="" xmlns="http://www.w3.org/2000/svg" viewBox="0 0 67.4 51" role="img" aria-label="Photos" width="70"  height="70" ><path d="M34.7 48.7H3.6L12.3 38h13.3zM53.7 48v.7H37.6L28.5 38h15.1z" fill="#484848"></path><path d="M43.6 38H28.5l9.1 10.8h16.1V48L43.6 38zm-18 0H12.3L3.6 48.7h31.1L25.6 38zm18 0H28.5l9.1 10.8h16.1V48L43.6 38zm-18 0H12.3L3.6 48.7h31.1L25.6 38z" fill="#9588FF"></path><path d="M54.8 11.3H1.1c-.6 0-1.1.5-1.1 1.1v37.4c0 .7.5 1.2 1.1 1.2h53.7c.6 0 1.1-.5 1.1-1.1V12.5c0-.7-.5-1.2-1.1-1.2zM2.3 48.7v-7.2L8.2 35h7.2c.6 0 1.1-.5 1.1-1.1 0-.6-.5-1.1-1.1-1.1h-5.2l5.7-6.3L25.6 38l9.1 10.8H2.3zm51.4 0H37.6L28.5 38 16.8 24.2c-.2-.2-.5-.4-.8-.4-.3 0-.6.1-.8.4L2.3 38.3V13.6h51.4v31.2L37.9 29.2c-.2-.2-.5-.3-.8-.3-.3 0-.6.1-.8.3l-4.6 4.6c-.5.5-.5 1.2 0 1.6.5.5 1.1.5 1.6 0l3.8-3.8 6.4 6.3 10.1 10v.8zm5.7-5.6V7.9H8v2.3H5.7V6.8c0-.6.5-1.1 1.1-1.1h53.7c.6 0 1.1.5 1.1 1.1v37.4c0 .6-.5 1.1-1.1 1.1h-3.4V43h2.3zm5.7-5.7V2.3H13.7v2.3h-2.3V1.1c0-.6.5-1.1 1.1-1.1h53.7c.6 0 1.1.5 1.1 1.1v37.4c0 .6-.5 1.1-1.1 1.1h-3.4v-2.3h2.3z" fill="#484848"></path></svg>