<svg xmlns:xlink="http://www.w3.org/1999/xlink" class="f0hiXs2f qBfzpew_" tabindex="" xmlns="http://www.w3.org/2000/svg" viewBox="0 0 70 70" role="img" aria-label="Certificate" width="70"  height="70" ><path fill="#9588FF" d="M31.483 54.287a6.718 6.718 0 100-13.436 6.718 6.718 0 000 13.436z"></path><path fill="#484848" fill-rule="evenodd" clip-rule="evenodd" d="M51.853 15.497v50.13c-.072.723-.722 1.373-1.517 1.373H2.445C1.65 67 1 66.35 1 65.555v-51.43C1 8.055 5.984 3.071 12.052 3.071h46.357c.142-.047.294-.072.45-.072 6.068 0 11.053 4.984 11.053 11.052 0 .867-.65 1.445-1.445 1.445H51.853zm8.096-9.535c3.541.475 6.344 3.232 7 6.645H51.995a8.152 8.152 0 017.955-6.645zm-33.45 52.514c.722 1.084 1.95 1.662 3.25 1.662s2.529-.578 3.25-1.662c.29-.433.795-.578 1.301-.433 1.228.433 2.528.217 3.612-.578 1.083-.722 1.661-1.95 1.661-3.25 0-.578.29-1.012.795-1.156a4.222 4.222 0 002.6-2.6c.434-1.229.217-2.529-.578-3.613-.289-.36-.289-.938 0-1.372a3.81 3.81 0 00.578-3.612 4.222 4.222 0 00-2.6-2.6c-.434-.217-.795-.65-.795-1.156 0-1.3-.578-2.456-1.661-3.25a3.81 3.81 0 00-3.612-.578c-.433.144-1.011 0-1.3-.434-.722-1.083-1.95-1.661-3.25-1.661-1.301 0-2.457.578-3.251 1.661-.29.434-.795.578-1.3.434-1.229-.434-2.529-.217-3.612.578-1.084.722-1.662 1.95-1.662 3.25 0 .578-.289 1.011-.794 1.156a4.222 4.222 0 00-2.6 2.6c-.434 1.228-.217 2.529.577 3.612.29.361.29.94 0 1.373a3.81 3.81 0 00-.578 3.611 4.222 4.222 0 002.6 2.6c.434.217.795.65.795 1.157 0 1.3.578 2.455 1.662 3.25 1.083.795 2.384 1.011 3.611.578.434-.145 1.012 0 1.3.433zm2.311-1.661c-.794-1.084-1.95-1.661-3.25-1.661-.434 0-.867.072-1.3.216a1.152 1.152 0 01-1.084-.144c-.361-.217-.506-.578-.506-.94 0-1.733-1.155-3.322-2.817-3.828a1.431 1.431 0 01-.795-.794 1.152 1.152 0 01.145-1.084 4.125 4.125 0 000-4.767c-.217-.361-.289-.723-.145-1.084.145-.433.434-.65.795-.794 1.734-.506 2.817-2.095 2.817-3.829 0-.361.217-.722.506-.939.361-.217.722-.289 1.083-.144 1.734.577 3.54 0 4.551-1.445.506-.65 1.517-.65 1.95 0 1.084 1.372 2.89 2.022 4.551 1.445a1.152 1.152 0 011.084.144c.361.217.505.578.505.94 0 1.733 1.156 3.322 2.818 3.828.36.144.65.433.794.794.145.361.072.795-.144 1.084a4.125 4.125 0 000 4.767c.216.361.289.723.144 1.084-.144.433-.433.65-.794.794-1.734.506-2.818 2.095-2.818 3.829 0 .36-.216.722-.505.939-.361.217-.723.289-1.084.144-1.733-.578-3.54 0-4.55 1.445-.506.65-1.517.65-1.95 0zm-5.417-10.619c0 3.468 2.817 6.357 6.356 6.357 3.54 0 6.43-2.89 6.357-6.357 0-3.467-2.89-6.356-6.357-6.356s-6.356 2.817-6.356 6.356zm2.817-.072c0-1.95 1.589-3.54 3.54-3.54 1.95 0 3.539 1.59 3.539 3.54s-1.59 3.54-3.54 3.54-3.54-1.59-3.54-3.54zm22.682 18.059H3.817V14.124c0-4.55 3.684-8.235 8.235-8.162h40.524c-2.24 2.022-3.684 4.912-3.684 8.162v50.059zM40.15 18.24H11.474c-.795 0-1.445-.65-1.445-1.444 0-.795.65-1.445 1.445-1.445H40.15c.794 0 1.444.65 1.444 1.445-.072.794-.65 1.444-1.444 1.444zm-28.677 9.463h9.173c.795 0 1.445-.65 1.445-1.444 0-.795-.65-1.445-1.445-1.445h-9.173c-.795 0-1.445.65-1.445 1.445 0 .794.65 1.444 1.445 1.444z"></path></svg>